<svg width="40" height="43" viewBox="0 0 40 43"  fill="none" xmlns="http://www.w3.org/2000/svg">
<path d="M32.1428 14.5259V5.70589C32.1428 5.31161 31.8236 4.99161 31.4286 4.99161C27.4743 4.99161 23.7557 3.45161 20.9593 0.655179L20.505 0.200893C20.2371 -0.0669643 19.7628 -0.0669643 19.495 0.200893L19.0407 0.655179C16.2443 3.45161 12.5257 4.99161 8.57141 4.99161C8.17641 4.99161 7.85713 5.31161 7.85713 5.70589V14.5259C7.85713 18.6102 10.1271 22.2823 13.78 24.1095L19.6807 27.0595C19.7807 27.1095 19.8907 27.1345 20 27.1345C20.1093 27.1345 20.2193 27.1095 20.3193 27.0595L26.22 24.1095C29.8728 22.2823 32.1428 18.6102 32.1428 14.5259ZM20 25.6216L14.4193 22.8309C11.2528 21.248 9.2857 18.0652 9.2857 14.5259V6.40518C13.33 6.23089 17.1086 4.58232 20 1.71661C22.8914 4.58232 26.67 6.23089 30.7143 6.40518V14.5259C30.7143 18.0659 28.7471 21.248 25.5807 22.8309L20 25.6216Z" fill="#F5FFF5"/>
<path d="M29.2857 8.34378C29.2857 7.99163 29.0293 7.69163 28.6807 7.63806C25.6757 7.17235 22.8278 5.92163 20.445 4.02235C20.1857 3.81449 19.8143 3.81449 19.555 4.02235C17.1721 5.92163 14.325 7.17163 11.3193 7.63806C10.9707 7.69163 10.7143 7.99163 10.7143 8.34378V14.5259C10.7143 17.5209 12.3785 20.2138 15.0578 21.5538L19.6807 23.8652C19.7814 23.9152 19.8907 23.9402 20 23.9402C20.1093 23.9402 20.2193 23.9152 20.3193 23.8652L24.9421 21.5538C27.6214 20.2138 29.2857 17.5209 29.2857 14.5259V8.34378ZM24.2857 14.2773C24.2857 14.6716 23.9657 14.9916 23.5714 14.9916H21.4285V17.1345C21.4285 17.5288 21.1085 17.8488 20.7143 17.8488H19.2857C18.8914 17.8488 18.5714 17.5288 18.5714 17.1345V14.9916H16.4285C16.0343 14.9916 15.7143 14.6716 15.7143 14.2773V12.8488C15.7143 12.4545 16.0343 12.1345 16.4285 12.1345H18.5714V9.99163C18.5714 9.59735 18.8914 9.27735 19.2857 9.27735H20.7143C21.1085 9.27735 21.4285 9.59735 21.4285 9.99163V12.1345H23.5714C23.9657 12.1345 24.2857 12.4545 24.2857 12.8488V14.2773Z" fill="#F5FFF5"/>
<path d="M37.7857 19.9916C36.6429 19.9916 35.6957 20.8487 35.5822 21.9851L35.0929 26.8744C35.0657 27.1487 34.88 27.3851 34.62 27.4773L32.8657 28.0966C33.0386 27.5601 33.0122 26.9794 32.7614 26.4666C32.4772 25.883 31.9522 25.458 31.3222 25.3009C30.3186 25.0509 29.2922 25.5216 28.83 26.4473L26.8893 30.3287C24.435 31.6987 22.8572 34.3116 22.8572 37.188V37.8487C22.4622 37.8487 22.1429 38.1687 22.1429 38.563V42.1344C22.1429 42.5287 22.4622 42.8487 22.8572 42.8487H32.1429C32.5379 42.8487 32.8572 42.5287 32.8572 42.1344V38.563C32.8572 38.1687 32.5379 37.8487 32.1429 37.8487V36.1173C32.1429 35.2794 32.6357 34.513 33.3993 34.1666L36.2322 32.8794C38.5214 31.838 40 29.5409 40 27.0266V22.2059C40 20.9851 39.0064 19.9916 37.7857 19.9916ZM30.1086 27.0859C30.2679 26.7694 30.6322 26.598 30.9764 26.6866C31.1993 26.7423 31.3779 26.8866 31.4779 27.093C31.5793 27.2994 31.5829 27.5287 31.49 27.738L31.0443 28.7401L28.9043 29.4951L30.1086 27.0859ZM38.5714 27.0266C38.5714 28.9823 37.4214 30.7687 35.64 31.5787L32.8072 32.8666C31.5357 33.4437 30.7143 34.7201 30.7143 36.1173V37.8487H24.2857V37.188C24.2857 34.4673 26.0093 32.0309 28.575 31.1259L35.0964 28.8244C35.8764 28.5494 36.4329 27.8401 36.515 27.0173L37.0043 22.128C37.0443 21.7244 37.3807 21.4201 37.7857 21.4201C38.2186 21.4201 38.5714 21.7723 38.5714 22.2059V27.0266Z" fill="#F5FFF5"/>
<path d="M17.1429 37.8487V37.188C17.1429 34.3116 15.565 31.698 13.11 30.328L11.1693 26.4473C10.7071 25.5209 9.68143 25.0501 8.67643 25.3001C8.04714 25.458 7.52286 25.8823 7.23786 26.4659C6.98786 26.9787 6.96143 27.5594 7.13357 28.0959L5.37929 27.4766C5.11929 27.3851 4.93357 27.1487 4.90643 26.8737L4.41714 21.9844C4.30357 20.8487 3.35643 19.9916 2.21429 19.9916C0.993571 19.9916 0 20.9851 0 22.2059V27.0266C0 29.5409 1.47857 31.838 3.76786 32.8794L6.60071 34.1666C7.36429 34.513 7.85714 35.2787 7.85714 36.1173V37.8487C7.46214 37.8487 7.14286 38.1687 7.14286 38.563V42.1344C7.14286 42.5287 7.46214 42.8487 7.85714 42.8487H17.1429C17.5379 42.8487 17.8571 42.5287 17.8571 42.1344V38.563C17.8571 38.1687 17.5379 37.8487 17.1429 37.8487ZM8.52214 27.0923C8.62286 26.8859 8.80071 26.7416 9.02286 26.6859C9.37 26.5994 9.73357 26.7687 9.89143 27.0859L11.0957 29.4944L8.955 28.7387L8.51 27.7373C8.41643 27.528 8.42071 27.2987 8.52214 27.0923ZM15.7143 37.8487H9.28571V36.1173C9.28571 34.7201 8.46429 33.4444 7.19214 32.8659L4.35929 31.5787C2.57857 30.7687 1.42857 28.9816 1.42857 27.0266V22.2059C1.42857 21.7723 1.78071 21.4201 2.21429 21.4201C2.61929 21.4201 2.95571 21.7244 2.99643 22.1273L3.48571 27.0166C3.56786 27.8394 4.125 28.5487 4.90429 28.8237L11.4257 31.1251C13.9907 32.0309 15.7143 34.468 15.7143 37.188V37.8487Z" fill="#F5FFF5"/>
</svg>
